<svg width="26" height="26" viewBox="0 0 26 26" fill="none" xmlns="http://www.w3.org/2000/svg">
<g clip-path="url(#clip0_794_354)">
<rect width="26" height="26" rx="5" fill="#A10000"/>
<g clip-path="url(#clip1_794_354)">
<path d="M15.3367 16.2073C15.3244 16.074 15.3154 15.8599 15.3083 15.6379C17.3664 15.4312 18.8102 14.9472 18.8102 14.3834C18.8045 14.3824 18.805 14.3601 18.805 14.3509C17.2665 12.9914 20.1389 3.33023 14.7915 3.52623C14.4556 3.24756 13.8678 3 13.0246 3C5.78153 3.53738 8.98411 12.6607 7.33379 14.3829C7.33284 14.3834 7.33142 14.3834 7.33047 14.3834C7.33047 14.3843 7.33095 14.3852 7.33095 14.3862L7.33047 14.3871L7.33142 14.3876C7.33805 14.9398 8.73305 15.4149 10.7315 15.6267C10.7258 15.7614 10.714 15.9282 10.6879 16.2073C9.85805 18.3949 4.25863 17.7809 4 22H22C21.7418 17.7809 16.1666 18.3949 15.3367 16.2073Z" stroke="black" stroke-width="2" stroke-miterlimit="10" stroke-linecap="round"/>
<path d="M10.0876 8C9.95452 8.36557 9.97363 8.76624 10.141 9.11865C10.3084 9.47106 10.6111 9.74808 10.9863 9.89208C11.3614 10.0361 11.7801 10.036 12.1552 9.89178C12.5302 9.74758 12.8328 9.4704 13 9.1179" fill="white"/>
<path d="M15.9124 8C16.0455 8.36557 16.0264 8.76624 15.859 9.11865C15.6916 9.47106 15.3889 9.74808 15.0137 9.89208C14.6386 10.0361 14.2199 10.036 13.8448 9.89178C13.4698 9.74758 13.1672 9.4704 13 9.1179" fill="white"/>
</g>
</g>
<defs>
<clipPath id="clip0_794_354">
<rect width="26" height="26" fill="white"/>
</clipPath>
<clipPath id="clip1_794_354">
<rect width="22" height="22" fill="white" transform="translate(2 2)"/>
</clipPath>
</defs>
</svg>
